<?xml version="1.0" encoding="iso-8859-1"?>
<!-- Generator: Adobe Illustrator 22.0.0, SVG Export Plug-In . SVG Version: 6.00 Build 0)  -->
<svg version="1.1" id="Layer_1" xmlns="http://www.w3.org/2000/svg" xmlns:xlink="http://www.w3.org/1999/xlink" x="0px" y="0px"
	 viewBox="0 0 1004.6 757.4" style="enable-background:new 0 0 1004.6 757.4;" xml:space="preserve">
<style type="text/css">
	.st0{fill:#00D871;}
	.st1{fill:#07E576;}
	.st2{fill:url(#SVGID_1_);}
	.st3{fill:url(#SVGID_2_);}
</style>
<path class="st0" d="M1391,109.7c0,284.2-70.2,358.4-348.9,358.4c-91.5,0-165.5,201.6-257.8,198C681.2,662,3.2,423.8-77.2,423.8
	s137.4,270,54,270S348.3,268.7,181.5,211S7.1,80.8,7.1,37c0-284.2,600.4-441.8,879.2-441.8S1391-174.5,1391,109.7z">
<animate  accumulate="none" additive="replace" attributeName="d" calcMode="spline" dur="15000ms" fill="remove" keySplines="0.3 0 0.7 1; 0.3 0 0.7 1" repeatCount="indefinite" restart="always" values="M1391 109.7c0 284.2-107.7 405.3-386.4 405.3-91.5 0-146.7 201.6-239 198-103.2-4.1-42.8-259.1-123.2-259.1S551 569 467.6 569 385.8 268.7 219 211 44.6 80.8 44.6 37c0-284.2 562.9-441.8 841.7-441.8S1391-174.5 1391 109.7z;                      M1391 109.7c0 284.2-67.7 355.3-346.4 355.3-91.5 0-166.7 201.6-259 198-103.2-4.1-62.8-209.1-143.2-209.1S521 629 437.6 629 345.8 268.7 179 211 4.6 80.8 4.6 37c0-284.2 602.9-441.8 881.7-441.8S1391-174.5 1391 109.7z;                      M1391 109.7c0 284.2-107.7 405.3-386.4 405.3-91.5 0-146.7 201.6-239 198-103.2-4.1-42.8-259.1-123.2-259.1S551 569 467.6 569 385.8 268.7 219 211 44.6 80.8 44.6 37c0-284.2 562.9-441.8 841.7-441.8S1391-174.5 1391 109.7z">
		</animate>
</path>
<path class="st1" d="M1345.9,78.1c0,242.7-66.1,225.7-319,225.7c-83,0-146.7,289.1-230.4,286c-93.6-3.5-53.3-231.7-126.2-231.7
	s-185.9,80.7-261.5,80.7s30.9-275.4-120.3-324.6S65,67.6,65,30.1c0-242.7,570.3-391.5,823.1-391.5S1345.9-164.6,1345.9,78.1
	L1345.9,78.1z">
<animate  accumulate="none" additive="replace" attributeName="d" calcMode="spline" dur="15000ms" fill="remove" keySplines="0.3 0 0.7 1; 0.3 0 0.7 1" repeatCount="indefinite" restart="always" values="M1345.9 78.1c0 242.7-99.4 358.9-352.3 358.9-83 0-132.2 202.8-215.9 199.7-93.6-3.5-43.9-278.6-116.8-278.6s-100.9 144-176.5 144-57.7-266.5-208.9-315.7-173-118.8-173-156.3c0-242.7 532.8-391.5 785.6-391.5s457.8 196.8 457.8 439.5z;                      M1345.9 78.1c0 242.7-47 278.9-299.9 278.9-83 0-164.6 232.8-248.3 229.7-93.6-3.5-53.9-228.6-126.8-228.6s-140.9 204-216.5 204-67.7-326.5-218.9-375.7-173-118.8-173-156.3c0-242.7 572.8-391.5 825.6-391.5s457.8 196.8 457.8 439.5z;                      M1345.9 78.1c0 242.7-99.4 358.9-352.3 358.9-83 0-132.2 202.8-215.9 199.7-93.6-3.5-43.9-278.6-116.8-278.6s-100.9 144-176.5 144-57.7-266.5-208.9-315.7-173-118.8-173-156.3c0-242.7 532.8-391.5 785.6-391.5s457.8 196.8 457.8 439.5z">
		</animate>
</path>
<linearGradient id="SVGID_1_" gradientUnits="userSpaceOnUse" x1="162.198" y1="96.0104" x2="1287.3" y2="96.0104">
	<stop  offset="0" style="stop-color:#2AC4F3"/>
	<stop  offset="0.5" style="stop-color:#00AEEE"/>
	<stop  offset="1" style="stop-color:#0095DA"/>
</linearGradient>
<path class="st2" d="M1287.3,50c0,187.2-34.9,228.1-256.1,228.1c-72.6,0-147.4,205.3-220.6,202.9c-81.8-2.7-57-215.9-120.8-215.9
	S562.4,458.7,496.2,458.7s-50.5-298.8-182.7-336.8S162.2,41.9,162.2,13c0-187.2,503.5-302,724.6-302S1287.3-137.2,1287.3,50z">
<animate  accumulate="none" additive="replace" attributeName="d" calcMode="spline" dur="15000ms" fill="remove" keySplines="0.3 0 0.7 1; 0.3 0 0.7 1" repeatCount="indefinite" restart="always" values="M1287.3 50c0 187.2-72.4 275-293.6 275-72.6 0-130.2 158.4-203.4 156-81.8-2.7-36.7-244-100.5-244s-89.9 140.1-156.1 140.1S483.2 159.9 351 121.9 199.7 41.9 199.7 13c0-187.2 466-302 687.1-302s400.5 151.8 400.5 339z;                      M1287.3 50c0 187.2-32.4 225-253.6 225-72.6 0-148.5 208.4-221.7 206-81.8-2.7-58.4-214-122.2-214S559.9 464.1 493.7 464.1 443.2 159.9 311 121.9 159.7 41.9 159.7 13c0-187.2 506-302 727.1-302s400.5 151.8 400.5 339z;                      M1287.3 50c0 187.2-72.4 275-293.6 275-72.6 0-130.2 158.4-203.4 156-81.8-2.7-36.7-244-100.5-244s-89.9 140.1-156.1 140.1S483.2 159.9 351 121.9 199.7 41.9 199.7 13c0-187.2 466-302 687.1-302s400.5 151.8 400.5 339z">
		</animate>
</path>
<linearGradient id="SVGID_2_" gradientUnits="userSpaceOnUse" x1="751.3019" y1="1114.5775" x2="751.3019" y2="1857.0223" gradientTransform="matrix(1 0 0 1 0 -1450)">
	<stop  offset="0" style="stop-color:#2AC4F3"/>
	<stop  offset="0.5" style="stop-color:#00AEEE"/>
	<stop  offset="1" style="stop-color:#0095DA"/>
</linearGradient>
<path class="st3" d="M1019.3,234.5c-72.6,0-125.5,174.9-198.8,172.5c-81.8-2.7-58.7-214-122.5-214S580,389.4,513.9,389.4
	S454,115.9,321.7,77.9S208-2.1,208-31c0-187.2,466-302,687.1-302s400.4,151.8,400.4,339s-76.1,228.8-297.3,228.8">
<animate  accumulate="none" additive="replace" attributeName="d" calcMode="spline" dur="15000ms" fill="remove" keySplines="0.3 0 0.7 1; 0.3 0 0.7 1" repeatCount="indefinite" restart="always" values="M981.8 281.4c-72.6 0-110 158-183.3 155.6-81.8-2.7-36.7-244-100.5-244s-89.9 140.1-156 140.1-50.5-217.2-182.8-255.2S208-2.1 208-31c0-187.2 466-302 687.1-302s400.4 151.8 400.4 339-113.6 275.7-334.8 275.7;                      M1021.8 231.4c-72.6 0-126.5 176-199.8 173.6-81.8-2.7-60.2-212-124-212S578.1 393.1 512 393.1 451.5 115.9 319.2 77.9 208-2.1 208-31c0-187.2 466-302 687.1-302s400.4 151.8 400.4 339-73.6 225.7-294.8 225.7;                      M981.8 281.4c-72.6 0-110 158-183.3 155.6-81.8-2.7-36.7-244-100.5-244s-89.9 140.1-156 140.1-50.5-217.2-182.8-255.2S208-2.1 208-31c0-187.2 466-302 687.1-302s400.4 151.8 400.4 339-113.6 275.7-334.8 275.7">
		</animate>
</path>
</svg>
