<?xml version="1.0" encoding="utf-8"?>
<!-- Generator: Adobe Illustrator 22.0.0, SVG Export Plug-In . SVG Version: 6.00 Build 0)  -->
<svg version="1.1" id="Layer_1" xmlns="http://www.w3.org/2000/svg" xmlns:xlink="http://www.w3.org/1999/xlink" x="0px" y="0px"
	 viewBox="0 0 256 101" style="enable-background:new 0 0 256 101;" xml:space="preserve">
<style type="text/css">
	.st0{fill-rule:evenodd;clip-rule:evenodd;fill:#DEFDF3;}
</style>
<path class="st0" d="M255.7,99.1c0,0-9.3-23.8-42.9-22.4L182.2,81c0,0-0.8,0.2-2,0.4c0,0-128,27.4-165-32.3c-37-59.7,8.8-44,8.8-44
	s72,63.6,144.2,38.4l0,0c5.8-2.1,11.2-2.4,11.2-2.4s30-7.1,47.8,1.4c17.8,8.5,24.6,23.9,26.7,31.8c0.9,3.5,2,25.2,2,25.2L255.7,99.1
	z"/>
</svg>
