<?xml version="1.0" encoding="utf-8"?>
<!-- Generator: Adobe Illustrator 22.0.0, SVG Export Plug-In . SVG Version: 6.00 Build 0)  -->
<svg version="1.1" id="Layer_1" xmlns="http://www.w3.org/2000/svg" xmlns:xlink="http://www.w3.org/1999/xlink" x="0px" y="0px"
	 viewBox="0 0 209.7 412.8" style="enable-background:new 0 0 209.7 412.8;" xml:space="preserve">
<style type="text/css">
	.st0{fill:#00D871;}
</style>
<g>
	<path class="st0" d="M4.3,349.7c79.2-0.1,143.6-64.7,143.4-143.9C147.6,126.6,83.1,62.2,3.9,62.3L3.8,5.1C30.9,5,57.2,10.3,82,20.7
		c23.9,10.1,45.5,24.5,63.9,43c18.5,18.4,33,39.9,43.2,63.8c10.5,24.8,15.9,51.1,15.9,78.2c0,27.1-5.2,53.4-15.7,78.3
		c-10.1,23.9-24.5,45.5-43,63.9c-18.4,18.5-39.9,33-63.8,43.2C57.8,401.6,31.5,406.9,4.4,407L4.3,349.7z"/>
</g>
</svg>
