<?xml version="1.0" encoding="iso-8859-1"?>
<!-- Generator: Adobe Illustrator 22.0.0, SVG Export Plug-In . SVG Version: 6.00 Build 0)  -->
<svg version="1.1" id="Layer_1" xmlns="http://www.w3.org/2000/svg" xmlns:xlink="http://www.w3.org/1999/xlink" x="0px" y="0px"
	 viewBox="0 0 86.3 100" style="enable-background:new 0 0 86.3 100;" xml:space="preserve">
<path style="fill:#0A4F8A;" d="M80,79.1L80,79.1c-5.4,5.4-14.2,5.4-19.7,0L5.6,24.3c-5.4-5.4-5.4-14.2,0-19.7l0,0
	c5.4-5.4,14.2-5.4,19.7,0L80,59.4C85.4,64.9,85.4,73.7,80,79.1z"/>
<path style="fill:#26AAE1;" d="M80.7,23.6c5-5,5-13.2,0-18.2L79.3,4c-5-5-13.2-5-18.2,0L42.9,22.2C33,12.4,23.1,2.6,23.1,2.6
	l0.6,0.6c10.5,10.5,10.5,27.5,0,38l-0.6,0.6l0,0L4.9,60.1c-5,5-5,13.2,0,18.2l1.4,1.4c5,5,13.2,5,18.2,0l18.2-18.2l19.6,19.5
	l-0.6-0.6c-9.8-9.8-10.5-25.4-1.8-36L80.7,23.6z"/>
<path style="fill:#231F20;" d="M22.1,86.9h-4.6c-1.3,0-2.3,1-2.3,2.3v10.1h2.3v-2.4h4.6c1.3,0,2.3-1,2.3-2.3v-5.3
	C24.4,88,23.4,86.9,22.1,86.9z M22.1,93.4c0,0.6-0.5,1.2-1.2,1.2h-3.4v-4.1c0-0.6,0.5-1.2,1.2-1.2h2.3c0.6,0,1.2,0.5,1.2,1.2V93.4z"
	/>
<path style="fill:#231F20;" d="M32.1,86.9h-4.6c-1.3,0-2.3,1-2.3,2.3V94c0,1.6,1.3,2.9,2.9,2.9h4.7v-2.3h-3.5
	c-0.8,0-1.5-0.7-1.5-1.5h5h1.7v-3.8C34.5,88,33.5,86.9,32.1,86.9z M32.1,90.9h-4.7v-0.4c0-0.7,0.5-1.2,1.2-1.2h2.3
	c0.7,0,1.2,0.5,1.2,1.2V90.9z"/>
<path style="fill:#231F20;" d="M81.6,86.9h-4.6c-1.3,0-2.3,1-2.3,2.3V94c0,1.6,1.3,2.9,2.9,2.9h4.7v-2.3h-3.5
	c-0.8,0-1.5-0.7-1.5-1.5h5h1.7v-3.8C83.9,88,82.9,86.9,81.6,86.9z M81.6,90.9h-4.7v-0.4c0-0.7,0.5-1.2,1.2-1.2h2.3
	c0.7,0,1.2,0.5,1.2,1.2V90.9z"/>
<path style="fill:#231F20;" d="M40.7,86.9h-3h0c-1.3,0-2.4,1.1-2.4,2.4v0v7.6h2.4v-6.5c0-0.6,0.5-1.1,1.1-1.1h2V86.9z"/>
<path style="fill:#231F20;" d="M48.1,87.2l0.3-0.3h-3.1v-3.1H43v3.1h-1.5v2.3H43v7.7h2.3v-7.7h1.8l0,0
	C47.2,88.5,47.5,87.7,48.1,87.2z"/>
<path style="fill:#231F20;" d="M54.5,94.7h-3.5c-0.6,0-1.1-0.5-1.1-1.1v-3.1c0-0.6,0.5-1.2,1.2-1.2h6.5v-2.3h-7.7
	c-1.3,0-2.4,1.1-2.4,2.4v5.4c0,1.3,1,2.3,2.3,2.3h4.7V94.7z"/>
<path style="fill:#231F20;" d="M55.3,89.7v4.9c0,1.3,1,2.3,2.3,2.3h4.7c1.3,0,2.3-1,2.3-2.3v-7.7h-2.3v6.6c0,0.6-0.5,1.1-1.1,1.1
	h-2.4c-0.6,0-1.2-0.5-1.2-1.2v-3.8H55.3z"/>
<path style="fill:#231F20;" d="M71.5,86.9h-3.9v-3.1h-2.3v10.8c0,1.3,1,2.3,2.3,2.3h3.9c1.3,0,2.3-1,2.3-2.3v-5.4
	C73.9,88,72.8,86.9,71.5,86.9z M71.6,93.5c0,0.6-0.5,1.1-1.1,1.1h-1.6c-0.6,0-1.1-0.5-1.1-1.1v-4.3h2.7c0.6,0,1.1,0.5,1.1,1.1V93.5z
	"/>
<path style="fill:#0A4F8A;" d="M13.9,98.7L13.9,98.7c-0.8,0.8-2.1,0.8-3,0l-8.2-8.2c-0.8-0.8-0.8-2.1,0-3h0c0.8-0.8,2.1-0.8,3,0
	l8.2,8.2C14.7,96.6,14.7,97.9,13.9,98.7z"/>
<path style="fill:#26AAE1;" d="M14,90.4c0.8-0.8,0.8-2,0-2.7l-0.2-0.2c-0.8-0.8-2-0.8-2.7,0l-2.7,2.7c-1.5-1.5-3-2.9-3-2.9l0.1,0.1
	C7,88.9,7,91.4,5.4,93l-0.1,0.1l0,0l-2.7,2.7c-0.8,0.8-0.8,2,0,2.7l0.2,0.2c0.8,0.8,2,0.8,2.7,0l2.7-2.7l2.9,2.9l-0.1-0.1
	c-1.5-1.5-1.6-3.8-0.3-5.4L14,90.4z"/>
</svg>
