<?xml version="1.0" encoding="utf-8"?>
<!-- Generator: Adobe Illustrator 22.0.0, SVG Export Plug-In . SVG Version: 6.00 Build 0)  -->
<svg version="1.1" id="Layer_1" xmlns="http://www.w3.org/2000/svg" xmlns:xlink="http://www.w3.org/1999/xlink" x="0px" y="0px"
	 viewBox="0 0 256 256" style="enable-background:new 0 0 256 256;" xml:space="preserve">
<style type="text/css">
	.st0{fill:#1E4579;}
	.st1{fill:#00D871;}
	.st2{fill:#F8B7B0;}
	.st3{opacity:0.2;fill:#FFFFFF;}
	.st4{fill-rule:evenodd;clip-rule:evenodd;fill:#00D871;}
	.st5{fill-rule:evenodd;clip-rule:evenodd;fill:#F8B7B0;}
	.st6{fill-rule:evenodd;clip-rule:evenodd;fill:#26303A;}
	.st7{fill-rule:evenodd;clip-rule:evenodd;fill:#05C15E;}
	.st8{fill:#6BF7BE;}
</style>
<g>
	<path class="st0" d="M49.1,246.6c0,0-1,1.5-0.7,2c0,0,3.7,6.1,11.1,5.7c7.4-0.4,26.1,0,26.1,0s7.3-2.8,7.1-6.2
		c-0.2-3.4-5.8-10.1-5.8-10.1s-6.3,5.9-10.4,3.3c-4.2-2.6-5-4.6-5-4.6s-7.6,5.5-9,5.4c0,0-6.1,2.7-9.4,2.4
		C53,244.6,50.5,244.9,49.1,246.6z"/>
	<path class="st1" d="M86.1,234l-11.9-2.5l-2.1,5.9c0,0,5.4,10.7,14.1,1.7"/>
	<path class="st2" d="M86.1,233.4c0,0-0.6-22.9,0.9-25.8c1.5-2.9,3.6-2.6,1.3-25.6c0,0,5.2-7.7,12.1-11.1
		c6.8-3.3,19.4-15.7,19.4-16.6c0-0.9,0.1-0.6,2.5,2.3c2.3,2.9,12.4,19.8,15.3,19.7c0,0,8.2,8.4,8.6,9.9c0,0,4.5,3.8,6.6,8.1
		c0,0-0.8,1.7,11.6,2.5c0,0,30.2,6.8,32,5.9c0,0,17.7,4.2,18.4,5.9c0.8,1.7,4.5-9.4,2.7-12.4c-1.7-3-26-10.1-26-10.1
		s-9.9-6.5-25.8-6.4c0,0-8.1-6-9.1-14.4c-1.1-8.3-13.7-18.4-14.6-18.4s-37.3-7-37.3-7l-7.5,0.3c0,0-12.6,12.4-13.3,14
		c-0.7,1.6-11.2,16.5-11.2,16.5s-5.2,5.1,0,10.8c0,0,1.2,24.8,1,25.2c-0.1,0.4-0.1,0.4-0.1,0.4s3.3,23.4,0.1,25.6
		c-3.2,2.3,12.4,3,12.4,3V233.4z"/>
	<path class="st0" d="M82.2,152.3l19.1,18.6c0,0,15.8-11.1,18.5-16.6c0,0,1.7,1.1,2.8,3.5c1.1,2.4,12.4,19.3,15.1,19.2
		c0,0,18.5-9,19.7-13.1c0,0-7.9-15.7-13.7-17.6c0,0-0.7-5.9,0.7-8.9c1.4-3-1.6-17.4-10.1-21.2c-8.4-3.8-26.1,12.6-26.1,12.6
		l-0.6,3.4l-7.1,5C100.4,137.3,85.5,153.4,82.2,152.3z"/>
	<path class="st1" d="M216,195.1c0,0,4.6,0.4,7.7,5.5c0,0,2.7,7.3-3.8,10.6l-5-2.5C214.8,208.6,217.9,197.3,216,195.1z"/>
	<path class="st0" d="M219.9,211.1c1.6,1.4,0.5,3.7,1.6,5.5c0-0.6,0-0.6,0-1.2c6.4,4.7,11.1,10.5,10.5,19.2c0,4.1,5.8,1.7,7-1.2
		c4.1-12.2,1.2-25.6-2.3-37.9c-1.7-6.4-7.6-8.2-12.8-2.3c0,0.6-2.3,0-4.1,0c-1.2,0-1.7,1.2-2.3,1.7c4.7,2.9,5.8,7.6,5,12.6
		C222.1,209.1,221.3,210.3,219.9,211.1z"/>
	<path class="st3" d="M65.6,248c0,0-0.3,6.1,21.1,1.9c21.4-4.2-15.3,5.1-16.9-2.9C68.3,239,68.5,247.4,65.6,248z"/>
	<path class="st3" d="M236.3,224.8c0,0,6-1-2.4-21.1c-8.5-20.1,8.1,14,0.6,17.1C226.9,224,235.1,222.1,236.3,224.8z"/>
	<g>
		<path class="st4" d="M105.2,115.5c1.3,3.4,2.6,6.9,3.9,10.3c4.3,1.3,8.2-0.5,12.2-1.4c4.9-1.2,9.3-3.4,13.7-5.9
			c1.6-0.9,3.2-1.9,3.8-3.9c0.4-3.2-1.2-6.1-1.8-9.1c-1.2-5.9-2-11.8-1.5-17.8c0.1-1.1,0-2.3-0.3-3.4c-0.3-1.2-1-2.1-2.1-2.6
			c-2,0.5-3.6-0.2-5.3-1.5c-3.7-3.1-7.4-6.3-9.6-10.8c-2.6-5.5-0.1-9.4,5.9-9.7c1.3-0.1,2.8,0.6,4-0.5c-1.8-3.1-4.4-5.4-6.8-7.9
			c-1.2-1-2.8-0.9-3.9-0.2c-3.8,2.3-8.2,3.6-11.6,6.5c-10.4,13-9.2,27.5-5.1,42.2c0.4,1.3,0.7,2.6,0.8,4
			C100.9,108.3,103,111.9,105.2,115.5z"/>
		<path class="st5" d="M140.2,116.2c0.3,1.9-0.9,2.8-2.2,4c-1.9,1.8-4.5,3-4.7,6.1c-0.2,2.9,2.1,5.7,6,7.3c5.9,2.4,5.9,2.3,7.7-3.8
			c0.2-0.8,0.6-1.5,0.9-2.2c-0.4-6.1,1.6-11.5,4.2-16.8c3-6.3,5.8-12.8,8.7-19.2c1.3-2.8,0.9-4.8-1.8-6.8
			c-6.3-4.7-12.3-9.7-18.4-14.6c-2,0.1-2.5,2-3.3,3.2c-1.9,2.7-4.4,5.1-4.8,8.6c0.5,0.7,1.1,1.3,1.6,2c2.4,2.6,5.5,4.3,8.4,6.1
			c2.6,1.7,3.4,3.6,2.4,6.7c-1.7,5.2-3.1,10.4-4.3,15.7C140.3,113.7,139.9,114.9,140.2,116.2z"/>
		<path class="st5" d="M105.7,57.6c4.9-1.1,8.7-4.9,13.5-6.2c0.6-0.2,1.3-0.1,2-0.1c-3.5-3-3.5-7.4-4.5-11.4
			c-0.5-0.6-1.2-0.7-1.9-0.7c-1.9,0-2.5-0.8-1.8-2.6c0.3-0.9,0.5-1.8,0.6-2.7c0.3-4.5-2-6.3-6.2-4.7c-1.8,0.7-2.2,0.3-2.5-1.4
			c-1.9-8.1-5.8-11.2-14.3-11.7c0.3,2.8-1.9,4.8-1.9,7.6c-0.1,1.9,1.7,4,0.4,5.3c-3.5,3.6-1.6,7.5-1.4,11.3c0.1,1,0.1,2.1,0.3,3.1
			c0.9,3.8,3,5.3,7,5.1c0.7,0,1.4-0.2,2.1-0.2c2,0.1,4.9-1.6,5.9-0.2C104.7,50.9,106.1,54.1,105.7,57.6z"/>
		<path class="st6" d="M90.6,16.2c1.9,1.9,4.7,1.2,7,2.4c4.1,2.2,6.2,5.3,6.6,9.8c0.2,2.3,0.3,4.9,3.3,1.6c1-1,2.3-0.9,3.6-0.5
			c1.5,0.4,1.6,1.8,1.8,3c0.2,1.7-0.3,3.2-1,4.7c-1.1,2.4-0.5,3.4,2.2,3c0.9-0.2,1.8-0.2,2.7-0.3c6.1-5.1,8.8-11.9,8.1-19.5
			C124.1,13.3,120,8.1,113,5.5c-9.1-3.4-16-1.6-21.3,5.3C90.4,12.5,89.7,14.2,90.6,16.2z"/>
		<path class="st7" d="M132.6,81.9c2.7-3.9,5.4-7.8,8.1-11.8c0.9-1.5,0.6-2.5-0.9-3.7c-3.6-2.9-7.8-4.8-11.8-7.2
			c-1.9-0.5-3.9-0.5-5.8-0.2c-4.6,0.5-7.2,4.7-5.6,9.1c2.5,6.9,8.2,10.9,13.5,15.2C131.9,84.7,131.7,82.2,132.6,81.9z"/>
		<path class="st5" d="M105.2,115.5c-1.2-3.9-2.4-7.8-3.7-11.7c-1.2,0.7-2.3,1.5-3.5,2.2c-3.8,2.3-7.5,4.5-12.5,3.5
			c-3.9-0.7-5,1.3-5.9,5.5c-0.7,3.1,1.3,5.2,2,7.7c0.5,1.8,2.6,2.5,5.1,1.2c5.2-2.9,9.9-6.8,15.9-8.2
			C103.4,115.5,104.2,114.9,105.2,115.5z"/>
	</g>
</g>
<path class="st8" d="M200.8,129.2c-12.3,0-22.2-10-22.2-22.2c0-12.3,10-22.2,22.2-22.2c12.3,0,22.2,10,22.2,22.2
	C223,119.2,213.1,129.2,200.8,129.2z M200.8,91.8c-8.3,0-15.1,6.8-15.1,15.1s6.8,15.1,15.1,15.1s15.1-6.8,15.1-15.1
	S209.1,91.8,200.8,91.8z"/>
<path class="st8" d="M18.3,73c-3.3,0-6.1-2.7-6.1-6.1c0-3.3,2.7-6.1,6.1-6.1s6.1,2.7,6.1,6.1C24.3,70.3,21.6,73,18.3,73z M18.3,62.8
	c-2.3,0-4.1,1.9-4.1,4.1c0,2.3,1.9,4.1,4.1,4.1c2.3,0,4.1-1.8,4.1-4.1C22.4,64.7,20.5,62.8,18.3,62.8z"/>
</svg>
