<?xml version="1.0" encoding="utf-8"?>
<!-- Generator: Adobe Illustrator 22.0.0, SVG Export Plug-In . SVG Version: 6.00 Build 0)  -->
<svg version="1.1" id="Layer_1" xmlns="http://www.w3.org/2000/svg" xmlns:xlink="http://www.w3.org/1999/xlink" x="0px" y="0px"
	 viewBox="0 0 256 101" style="enable-background:new 0 0 256 101;" xml:space="preserve">
<style type="text/css">
	.st0{fill-rule:evenodd;clip-rule:evenodd;fill:#F3FBFE;}
</style>
<path class="st0" d="M256,8.9c-4.1,8.8-6.8,20.2-22.4,24.6c-11.9,3.4-30.6-14-47.1-11.5c-13.1,2-25.8,24.5-41.6,25
	c-13.6,0.5-27.9-20.8-43.3-21.9c-13.8-1-30.7,18.3-45.8,15.8c-13.7-2.3-23.5-26.1-38.3-30C12,9.4,6,11.4,0,13.9v47.5
	c5.1-1.6,11-2.3,18.3-0.4c12.4,3.2,22.8,27.2,39,30.1C71,93.4,88.5,74.5,104,75.8c14.3,1.2,28.5,22.9,43.7,22.6
	c14.5-0.3,27.7-22.4,42.6-24.6c14.5-2.1,33.5,15.4,47.9,11c8.3-2.5,12.8-11.6,17.9-19.9V8.9z"/>
</svg>
